<svg id="Layer_1" data-name="Layer 1" xmlns="http://www.w3.org/2000/svg" width="36.65887mm" height="37.4695mm" viewBox="0 0 103.91489 106.21277"><defs><style>.cls-1{fill:#fff;}.cls-2{fill:#231f20;}</style></defs><path class="cls-1" d="M11.04149,11.75957H21.9947A17.17658,17.17658,0,0,1,39.17128,28.93615v0A17.17658,17.17658,0,0,1,21.9947,46.11277H11.04149a0,0,0,0,1,0,0V11.75957A0,0,0,0,1,11.04149,11.75957Z"/><path class="cls-1" d="M88.85106,102.383H15.82979a12.03528,12.03528,0,0,1-12-12L88.85106,5.3617a12.03528,12.03528,0,0,1,12,12V90.383A12.03528,12.03528,0,0,1,88.85106,102.383Z"/><path class="cls-2" d="M68.02744,90.86774l-1.56492,3.65575s-8.16625-21.04143-12.595-27.04178a66.80312,66.80312,0,0,0-5.35685-4.41788l5.4311-2.43838Z"/><polygon class="cls-2" points="66.596 91.404 66.463 94.523 80.426 61.787 80.426 61.787 66.596 91.404"/></svg>